<svg width="31" height="30" viewBox="0 0 31 30" fill="none" xmlns="http://www.w3.org/2000/svg">
<path fill-rule="evenodd" clip-rule="evenodd" d="M14.4996 4.35675C8.7798 8.05051 6.00228 11.8627 6.00228 18.232C6.37889 18.1137 6.70843 18.1137 7.03796 18.1137C10.0273 18.1137 12.9226 20.15 12.9226 23.82C12.9226 27.6322 10.4981 30 7.03796 30C2.56568 30 0 26.4009 0 19.9369C0 10.9392 4.11921 4.47514 11.8162 0L14.4996 4.35675ZM30.9765 4.35675C25.2566 8.05051 22.4791 11.8627 22.4791 18.232C22.8557 18.1137 23.1853 18.1137 23.5148 18.1137C26.5042 18.1137 29.3994 20.15 29.3994 23.82C29.3994 27.6322 26.9749 30 23.5148 30C19.0661 30 16.5004 26.4009 16.5004 19.9369C16.5004 10.9392 20.6196 4.47514 28.3166 0L31 4.35675H30.9765Z" fill="#BFBFBF"/>
</svg>
