<svg width="1000" height="800" viewBox="0 0 1000 800" fill="none" xmlns="http://www.w3.org/2000/svg">
<g clip-path="url(#clip0_2002_3)">
<path d="M150 536.013V198.707L609.458 446.694V784L150 536.013Z" fill="#003366"/>
<path d="M652.04 521.242L830 617.293V263.987L370.542 16L370.542 276.762L652.04 428.698V521.242Z" fill="#FF6F61"/>
<path d="M252.512 463.689C248.277 461.291 244.725 458.338 241.855 454.828C239.044 451.351 237.172 447.577 236.24 443.505C235.308 439.433 235.521 435.368 236.88 431.311L249.934 438.7C249.156 441.502 249.274 444.133 250.287 446.592C251.358 449.083 253.285 451.117 256.07 452.693C258.913 454.303 261.401 454.844 263.535 454.317C265.691 453.727 267.189 452.238 268.031 449.848C268.717 447.899 268.73 445.983 268.071 444.102C267.411 442.22 266.362 440.457 264.923 438.813C263.564 437.139 261.589 435.041 258.998 432.518C255.496 429.028 252.708 425.979 250.634 423.372C248.64 420.735 247.175 417.681 246.24 414.211C245.385 410.71 245.688 406.885 247.149 402.734C248.522 398.836 250.616 395.949 253.433 394.074C256.25 392.2 259.549 391.427 263.329 391.757C267.132 392.024 271.121 393.34 275.299 395.704C281.564 399.251 286.054 403.791 288.768 409.324C291.562 414.827 292.122 420.649 290.447 426.79L277.045 419.204C277.726 416.874 277.48 414.51 276.306 412.112C275.213 409.683 273.303 407.697 270.576 406.153C268.198 404.807 266.051 404.383 264.135 404.883C262.278 405.415 260.906 406.939 260.021 409.455C259.401 411.215 259.403 412.989 260.027 414.775C260.73 416.53 261.733 418.229 263.034 419.87C264.415 421.482 266.389 423.58 268.958 426.165C272.461 429.656 275.238 432.736 277.29 435.406C279.342 438.076 280.824 441.177 281.737 444.711C282.65 448.244 282.387 452.054 280.948 456.142C279.708 459.663 277.716 462.457 274.971 464.523C272.226 466.589 268.908 467.615 265.017 467.599C261.148 467.521 256.98 466.217 252.512 463.689ZM313.347 497.332L304.824 465.81L296.987 488.071L284.803 481.175L309.377 411.374L321.56 418.27L307.58 457.981L331.57 444.977L347.409 453.942L316.943 468.145L329.186 506.297L313.347 497.332ZM362.392 454.957C360.245 453.742 358.702 452.001 357.76 449.734C356.899 447.436 356.856 445.187 357.631 442.986C358.406 440.785 359.744 439.356 361.646 438.698C363.627 438.009 365.691 438.273 367.838 439.488C369.985 440.703 371.489 442.459 372.35 444.757C373.291 447.024 373.374 449.258 372.599 451.459C371.824 453.66 370.446 455.105 368.464 455.793C366.563 456.451 364.539 456.172 362.392 454.957ZM366.205 464.582L347.808 516.838L335.625 509.942L354.022 457.685L366.205 464.582ZM396.603 460.747L372.029 530.548L359.846 523.652L384.419 453.851L396.603 460.747ZM420.824 474.457L396.25 544.258L384.067 537.362L408.64 467.561L420.824 474.457ZM423.246 546.53L444.741 558.697L440.922 569.544L405.59 549.545L409.342 538.886L441.228 520.057L420.255 508.185L424.074 497.338L459.058 517.14L455.306 527.799L423.246 546.53ZM514.876 548.735L457.929 608.809L444.962 601.469L464.571 581.346L463.183 519.475L476.846 527.209L476.439 570.757L501.909 541.396L514.876 548.735Z" fill="white"/>
</g>
<defs>
<clipPath id="clip0_2002_3">
<rect width="800" height="1000" fill="white" transform="matrix(0 -1 1 0 0 800)"/>
</clipPath>
</defs>
</svg>
